<?xml version="1.0" standalone="no"?>
<!DOCTYPE svg PUBLIC "-//W3C//DTD SVG 20010904//EN"
 "http://www.w3.org/TR/2001/REC-SVG-20010904/DTD/svg10.dtd">
<svg version="1.0" xmlns="http://www.w3.org/2000/svg"
 width="408.000000pt" height="408.000000pt" viewBox="0 0 408.000000 408.000000"
 preserveAspectRatio="xMidYMid meet">
<metadata>
Created by potrace 1.14, written by Peter Selinger 2001-2017
</metadata>
<g transform="translate(0.000000,408.000000) scale(0.100000,-0.100000)"
fill="#000000" stroke="none">
<path d="M1649 4065 c-2 -1 -38 -6 -79 -10 -124 -12 -144 -14 -175 -20 -16 -2
-52 -7 -78 -10 -26 -2 -51 -6 -55 -9 -4 -2 -28 -7 -52 -11 -25 -3 -83 -13
-130 -22 -47 -9 -94 -17 -105 -19 -11 -1 -60 -12 -110 -24 -49 -12 -97 -23
-105 -25 -8 -2 -15 -4 -15 -5 0 -1 -9 -3 -20 -5 -23 -5 -189 -57 -255 -80 -65
-23 -220 -101 -254 -127 -61 -48 -124 -114 -139 -148 -33 -73 -46 -111 -52
-148 -3 -21 -8 -49 -11 -62 -5 -26 -5 -254 1 -355 5 -79 13 -397 20 -780 8
-398 9 -425 23 -457 6 -14 13 -43 15 -65 9 -69 41 -203 75 -308 32 -99 106
-258 181 -390 41 -71 158 -228 220 -295 33 -36 61 -69 61 -73 0 -4 -7 -10 -15
-13 -8 -4 -15 -12 -15 -19 0 -7 -4 -15 -9 -17 -15 -5 -95 -108 -158 -203 -66
-99 -106 -174 -147 -279 -22 -55 -25 -70 -14 -77 17 -11 3519 -11 3536 0 11 6
6 24 -22 84 -20 41 -36 77 -36 80 0 24 -227 393 -266 432 -18 17 -18 17 49 90
88 95 217 286 287 424 69 138 150 363 142 394 -1 4 3 7 10 7 6 0 9 3 6 6 -3 3
0 31 7 62 7 31 16 73 19 92 3 19 12 64 20 100 8 36 12 68 9 73 -2 4 -1 12 3
18 3 6 8 28 10 48 1 20 5 68 9 106 7 78 9 104 21 290 10 156 11 853 1 945 -11
106 -49 263 -69 288 -6 6 -8 12 -5 12 7 0 -9 30 -45 86 -23 35 -80 88 -98 89
-3 1 -18 8 -35 17 -36 19 -234 91 -243 88 -1 0 -16 7 -32 15 -17 9 -30 13 -30
11 0 -3 -11 -1 -25 4 -14 5 -36 12 -48 15 -12 2 -67 16 -122 30 -55 14 -116
28 -135 31 -19 3 -42 10 -51 15 -9 4 -19 6 -22 3 -3 -3 -22 -1 -43 5 -22 5
-61 13 -89 16 -27 4 -61 9 -75 11 -14 3 -42 7 -62 9 -21 3 -49 7 -63 9 -14 3
-54 8 -88 11 -34 3 -80 8 -102 11 -22 3 -60 7 -85 9 -25 3 -72 7 -105 11 -65
7 -730 15 -736 9z m2026 -932 c42 -75 23 -53 -83 97 -20 29 -17 27 17 -10 23
-25 53 -64 66 -87z"/>
</g>
</svg>
